<?xml version="1.0" standalone="no"?>
<!DOCTYPE svg PUBLIC "-//W3C//DTD SVG 20010904//EN"
 "http://www.w3.org/TR/2001/REC-SVG-20010904/DTD/svg10.dtd">
<svg version="1.0" xmlns="http://www.w3.org/2000/svg"
 width="280.000000pt" height="280.000000pt" viewBox="0 0 280.000000 280.000000"
 preserveAspectRatio="xMidYMid meet">
<metadata>
Created by potrace 1.11, written by Peter Selinger 2001-2013
</metadata>
<g transform="translate(0.000000,280.000000) scale(0.100000,-0.100000)"
fill="#000000" stroke="none">
<path d="M1347 2504 c-3 -3 -38 -7 -78 -9 -82 -4 -98 -7 -117 -19 -7 -4 -16
-6 -18 -3 -6 5 -109 -34 -159 -61 -16 -9 -33 -15 -37 -14 -5 1 -8 -2 -8 -8 0
-5 -4 -10 -9 -10 -27 0 -178 -128 -226 -191 -24 -32 -60 -95 -57 -101 1 -5 -2
-8 -8 -8 -5 0 -10 -9 -10 -20 0 -11 -4 -20 -8 -20 -4 0 -8 -8 -9 -17 -1 -10
-7 -31 -14 -48 -13 -34 -16 -46 -22 -127 -3 -31 -8 -61 -12 -67 -3 -6 -2 -11
3 -11 5 0 10 -15 10 -32 0 -18 1 -35 2 -38 2 -8 13 -103 14 -127 1 -13 5 -23
9 -23 5 0 5 -4 2 -10 -3 -5 -1 -10 4 -10 6 0 10 -3 9 -7 -1 -5 2 -28 6 -53 5
-25 8 -48 7 -52 0 -5 4 -8 9 -8 6 0 10 -10 10 -21 0 -16 -3 -19 -12 -11 -23
17 -101 -13 -116 -45 -22 -48 -25 -114 -8 -178 9 -33 18 -67 21 -75 4 -18 31
-76 48 -105 11 -19 79 -97 102 -117 41 -35 59 -47 65 -43 9 6 31 -19 29 -31
-4 -22 2 -42 19 -60 9 -10 18 -28 20 -39 2 -11 6 -27 9 -35 3 -8 8 -23 10 -33
2 -10 10 -25 18 -33 8 -9 15 -19 15 -23 0 -21 116 -124 148 -133 14 -4 107
-87 101 -91 -40 -23 -49 -26 -55 -16 -5 8 -8 8 -13 0 -4 -6 -20 -12 -37 -15
-16 -2 -37 -7 -48 -11 -10 -4 -31 -8 -46 -9 -15 -1 -26 -4 -23 -8 2 -5 -8 -9
-24 -10 -34 -1 -44 -3 -63 -11 -8 -4 -26 -8 -40 -9 -14 -2 -31 -7 -37 -11 -7
-5 -13 -6 -13 -3 0 3 -11 -4 -25 -16 l-24 -21 22 -12 c12 -6 33 -18 47 -25 14
-8 27 -15 30 -15 3 -1 26 -11 52 -23 54 -26 98 -44 113 -47 6 -2 17 -4 25 -6
8 -2 17 -7 20 -11 3 -4 17 -10 30 -12 14 -2 25 -5 25 -6 0 -1 9 -4 20 -6 34
-8 50 -12 50 -14 0 -16 732 -24 773 -9 23 9 46 15 87 23 6 1 16 5 23 9 6 5 12
5 12 1 0 -3 6 -2 13 3 6 6 24 13 38 16 14 4 43 14 65 24 21 9 41 17 44 18 21
3 130 61 130 68 0 6 3 7 6 4 10 -9 44 12 44 27 0 25 -149 67 -237 66 -13 0
-23 4 -23 8 0 4 -19 8 -42 9 -23 2 -44 6 -47 10 -3 5 -17 9 -31 10 -62 4 -80
8 -80 15 0 5 -9 4 -20 -2 -15 -8 -21 -7 -29 7 -7 15 -1 22 40 41 26 13 51 33
55 44 3 11 8 17 11 14 6 -6 53 60 53 73 0 5 15 18 34 29 19 11 41 37 52 61 17
35 30 46 56 42 4 0 12 16 19 37 6 20 14 42 17 47 4 6 8 33 9 60 2 28 5 58 7
67 2 9 -1 19 -8 22 -8 3 -8 5 1 5 8 1 9 10 3 32 -5 18 -6 37 -2 43 10 16 10
76 0 76 -5 0 7 14 26 31 20 17 35 34 35 37 -2 13 13 52 20 52 8 0 35 65 32 76
-2 4 2 10 7 13 18 12 34 181 17 193 -6 5 -5 8 2 8 9 0 10 7 4 23 -4 12 -7 30
-6 40 2 9 -1 17 -6 17 -6 0 -8 4 -4 9 3 5 1 12 -5 16 -6 4 -8 11 -5 16 4 5 1
9 -4 9 -6 0 -11 6 -11 13 0 19 -45 56 -76 61 -15 3 -42 -1 -62 -9 -19 -8 -35
-15 -36 -15 0 0 -2 48 -3 108 -2 102 -8 187 -13 187 -1 0 -3 11 -4 25 -1 14
-5 31 -9 38 -5 6 -6 16 -3 20 3 5 -4 23 -15 41 -11 18 -15 30 -10 27 13 -8
-26 71 -59 119 -15 22 -27 42 -26 45 1 5 -96 103 -133 133 -13 10 -32 22 -44
28 -12 5 -38 19 -57 30 -19 12 -39 23 -45 24 -36 10 -55 18 -55 24 0 3 -10 7
-23 8 -24 3 -44 7 -67 16 -8 3 -22 6 -30 6 -89 6 -130 10 -138 15 -5 3 -12 3
-15 0z"/>
</g>
</svg>
